<svg width="19" height="21" viewBox="0 0 19 21" fill="none" xmlns="http://www.w3.org/2000/svg">
<path d="M8.01 1.4C8.0625 1.4525 8.2375 1.155 8.395 0.7525C8.57 0.3325 8.7975 0 8.92 0C9.0425 0 9.27 0.28 9.41 0.6125C9.55 0.945 9.7075 1.225 9.76 1.225C9.8125 1.225 9.8125 0.9975 9.76 0.7C9.6725 0.2275 9.7075 0.1925 10.0225 0.35C10.215 0.455 10.53 0.7875 10.7225 1.1025C10.915 1.4 11.16 1.9425 11.265 2.275C11.4225 2.765 11.405 2.9225 11.23 3.01C11.055 3.115 11.0375 3.15 11.2125 3.15C11.3175 3.15 11.4225 3.29 11.4225 3.465C11.44 3.6225 11.2825 3.955 11.1075 4.2C10.915 4.445 10.635 4.9 10.4775 5.215C10.32 5.5125 10.1975 6.0025 10.1975 6.3C10.1975 6.65 10.0225 7 9.655 7.35C9.3575 7.63 9.0425 7.875 8.9375 7.875C8.8325 7.875 8.7975 7.8225 8.85 7.7525C8.92 7.665 8.6925 7.4375 8.36 7.2275C7.8875 6.9125 7.7475 6.7025 7.7475 6.3C7.7475 6.0025 7.695 5.74 7.625 5.705C7.5375 5.67 7.4325 5.4425 7.3625 5.18C7.275 4.935 7.0475 4.55 6.855 4.34C6.5575 4.025 6.505 3.815 6.5925 3.3775C6.645 3.0275 6.6275 2.8 6.5225 2.8C6.4175 2.8 6.4 2.695 6.505 2.5025C6.5925 2.3275 6.75 1.96 6.855 1.6625C6.96 1.3825 7.275 0.91 7.5725 0.6125C7.8525 0.3325 8.1325 0.1225 8.185 0.175C8.2375 0.2275 8.2025 0.5075 8.0975 0.7875C7.9925 1.085 7.9575 1.3475 8.01 1.4Z" fill="#2E2D2B"/>
<path d="M3.775 8.6625C3.985 8.435 4.825 7.9625 5.6475 7.63C6.47 7.2975 7.1525 7.0175 7.17 7.0175C7.1875 7 7.03 7.315 6.82 7.7C6.4525 8.365 6.4525 8.435 6.7325 8.6275C6.9075 8.75 7.03 8.89 7.0475 8.9775C7.0475 9.0475 6.925 9.1 6.785 9.1C6.61 9.1 6.5575 9.205 6.6275 9.415C6.68 9.5725 6.9075 10.1325 7.1 10.6225C7.31 11.13 7.5025 11.5325 7.5375 11.4975C7.5725 11.48 7.45 11.0075 7.275 10.4475C6.9775 9.4675 6.9775 9.415 7.275 9.2575C7.555 9.1175 7.5375 9.065 7.1875 8.6625C6.8025 8.2425 6.8025 8.2075 7.345 6.9825L7.5725 7.4725C7.695 7.7525 7.94 8.715 8.4475 11.2875L8.36 9.765C8.3075 8.82 8.3425 8.19 8.4475 8.1375C8.5525 8.085 8.5875 8.1725 8.535 8.3125C8.4825 8.4525 8.5175 8.68 8.605 8.8025C8.71 8.925 8.7275 9.73 8.535 12.39L7.2225 12.3025C6.505 12.2675 5.84 12.1975 5.735 12.18C5.6475 12.145 5.4375 11.76 5.2975 11.2875C5.1575 10.8325 4.9825 10.43 4.9125 10.395C4.825 10.36 4.7725 10.3775 4.7725 10.465C4.7725 10.535 4.86 11.025 5.14 12.5125L5.9625 12.6525C6.4175 12.7225 7.31 12.775 7.975 12.775C8.6225 12.775 9.1825 12.8625 9.235 12.95C9.2875 13.055 9.935 13.1775 12.035 13.3525L10.4075 14.1575C9.2875 14.7175 8.7975 15.05 8.7975 15.2775C8.7975 15.5225 8.605 15.5925 6.785 15.68L7.8875 15.715C8.6225 15.7325 8.99 15.68 9.0425 15.54C9.0775 15.4175 9.8475 14.945 12.385 13.685L12.56 12.705C12.665 12.1625 12.7 11.725 12.6475 11.725C12.595 11.725 12.455 11.9175 12.35 12.1625C12.2275 12.4075 12.1225 12.705 12.1225 12.8275C12.1225 12.985 11.8425 13.0025 10.9325 12.8975C10.285 12.8275 9.69 12.6875 9.585 12.6C9.48 12.495 9.27 12.425 9.1125 12.425C8.9375 12.425 8.7975 12.3725 8.7975 12.3025C8.7975 12.215 8.885 11.4625 8.9725 10.5875C9.095 9.415 9.0775 8.96 8.92 8.785C8.7625 8.61 8.7625 8.505 8.92 8.3475C9.095 8.19 9.2 8.19 9.4275 8.4C9.7075 8.645 9.725 8.6275 9.62 8.365C9.55 8.1725 9.5675 8.085 9.6725 8.1375C9.7775 8.19 9.8125 8.7325 9.76 9.5025C9.7075 10.185 9.7075 10.6925 9.76 10.5875C9.8125 10.5 9.9875 9.7125 10.495 7.2625L10.775 7.875C11.0375 8.4525 11.02 8.505 10.285 9.2925L10.6875 9.275C10.8975 9.275 11.0725 9.2925 11.0725 9.3275C11.0725 9.345 10.915 9.87 10.7225 10.5C10.53 11.13 10.3725 11.76 10.39 11.9C10.39 12.04 10.6175 11.5675 10.915 10.85C11.195 10.1325 11.4225 9.4325 11.4225 9.3275C11.4225 9.205 11.3175 9.065 11.2125 9.0475C11.0375 8.995 11.0375 8.925 11.2125 8.6975C11.3875 8.4525 11.37 8.295 11.16 7.875C10.9675 7.49 10.95 7.3675 11.125 7.4375C11.23 7.4725 11.9125 7.6825 12.63 7.91C13.785 8.2775 13.96 8.3825 14.1875 8.925C14.345 9.275 14.4675 10.0625 14.4675 10.7625C14.4675 11.7775 14.38 12.18 13.925 13.125C13.5575 13.9125 13.0675 14.56 12.35 15.19C11.79 15.715 10.95 16.3275 10.46 16.555C9.9875 16.7825 9.1825 17.0275 8.6925 17.115C7.8875 17.22 7.7825 17.2025 7.6775 16.8875C7.6075 16.6425 7.31 16.4675 6.6625 16.31C6.155 16.1875 5.6125 15.9775 5.4725 15.8375C5.3325 15.715 4.7725 15.575 4.265 15.54C3.3025 15.4875 3.3025 15.4875 2.865 14.6125C2.55 13.9825 2.4275 13.4925 2.445 12.8625C2.4625 12.39 2.6725 11.34 2.9175 10.5525C3.18 9.7475 3.5475 8.9075 3.775 8.6625Z" fill="#2E2D2B"/>
<path d="M5.525 16.9575C5.105 16.8525 4.9475 16.695 4.965 16.4325C4.9825 16.1525 5.0525 16.1 5.35 16.205C5.56 16.275 5.77 16.3975 5.8225 16.485C5.875 16.5725 5.9625 16.6425 6.05 16.6425C6.12 16.625 6.3825 16.66 6.6625 16.7125C6.925 16.7475 7.2575 16.9225 7.3975 17.08C7.6425 17.3425 7.6075 17.36 6.8725 17.255C6.435 17.185 5.8225 17.045 5.525 16.9575Z" fill="#2E2D2B"/>
<path d="M13.2952 5.84C13.4877 5.8575 13.8902 5.6825 14.1877 5.455C14.4852 5.21 14.7302 5.0175 14.7477 5C14.7827 5 15.0627 5.175 15.3602 5.385C15.6752 5.595 15.9552 5.7875 15.9727 5.8225C16.0077 5.8575 15.8677 6.155 15.3252 7.1L15.8502 7.94C16.3927 8.7625 16.3927 8.7625 17.1277 8.6225C17.5302 8.5525 17.8802 8.5175 17.8802 8.535C17.8977 8.57 17.9502 8.92 18.0202 9.34C18.1252 10.0575 18.1077 10.075 17.4427 10.39C17.0577 10.5475 16.7077 10.845 16.6552 11.0375C16.6202 11.23 16.5152 11.7375 16.4627 12.175C16.3402 12.9275 16.3577 12.98 16.8827 13.225C17.1977 13.365 17.4427 13.505 17.4252 13.54C17.4252 13.5575 17.2502 13.9425 17.0227 14.38C16.6552 15.15 16.6027 15.1675 15.9377 15.1325C15.2902 15.08 15.1502 15.1675 14.2927 16.0425C13.4527 16.8825 13.3652 17.0225 13.5577 17.39C13.6627 17.6 13.7502 17.845 13.7502 17.95C13.7502 18.055 13.4002 18.37 12.1752 19.175L11.6502 18.7375C11.1602 18.3175 11.0902 18.3175 10.5477 18.5625C10.2502 18.7025 9.7252 18.8775 9.4102 18.9475C8.9377 19.0525 8.7802 19.21 8.6227 19.735C8.4477 20.2425 8.3077 20.4 7.8877 20.4875C7.5902 20.54 7.1877 20.575 6.9602 20.575C6.6277 20.575 6.5752 20.4875 6.5752 19.875C6.5752 19.3675 6.5052 19.175 6.3127 19.175C6.1727 19.175 5.6827 19.0525 4.3877 18.6325L3.0752 19.7L2.4977 19.315C2.2002 19.105 1.9202 18.9125 1.8852 18.8775C1.8677 18.8425 2.0602 18.5275 2.7427 17.5125L2.1652 16.6725C1.8152 16.165 1.4827 15.8675 1.3252 15.92C1.1852 15.955 0.870204 16.0425 0.625204 16.095C0.222704 16.1825 0.170204 16.13 0.0477044 15.4475C-0.0397956 14.94 -0.00479567 14.6425 0.135204 14.485C0.257704 14.3625 0.537704 14.24 0.747704 14.1875C0.975204 14.135 1.2202 13.925 1.3077 13.715C1.4302 13.3475 1.4827 13.3825 1.8327 14.1875C2.0427 14.6775 2.5152 15.36 2.8652 15.745C3.2152 16.1125 3.9502 16.62 4.4752 16.8475C5.1052 17.145 5.8927 17.32 6.7502 17.3725C7.8702 17.46 8.2727 17.39 9.4627 16.9875C10.2677 16.725 11.2827 16.2175 11.8602 15.7975C12.4027 15.395 13.1377 14.6425 13.5227 14.135C13.8902 13.6275 14.3802 12.7175 14.5902 12.1225C14.9227 11.2475 14.9927 10.7925 14.9402 9.8125C14.8877 9.06 14.7302 8.29 14.4852 7.8C14.2927 7.3625 13.8552 6.7325 13.5227 6.4C12.9977 5.875 12.9627 5.7875 13.2952 5.84Z" fill="#F87725"/>
</svg>
